<svg width="29" height="28" viewBox="0 0 29 28" fill="none" xmlns="http://www.w3.org/2000/svg">
<path d="M5.58888 4.92675C7.91 2.60567 11.1199 1.16797 14.6634 1.16797C18.2068 1.16797 21.4168 2.60567 23.7379 4.92676C26.059 7.24788 27.4967 10.4578 27.4967 14.0013C27.4967 17.5448 26.059 20.7547 23.7379 23.0758C21.4168 25.3969 18.2068 26.8346 14.6634 26.8346C11.1199 26.8346 7.91 25.3969 5.58887 23.0758C3.26778 20.7547 1.83008 17.5448 1.83008 14.0013C1.83008 10.4578 3.26779 7.24788 5.58888 4.92675Z" fill="#00BF8F"/>
<path d="M12.6725 18.3263C13.1281 18.7819 13.8668 18.7819 14.3224 18.3263L21.4402 11.2085C21.8307 10.8179 21.8307 10.1848 21.4402 9.79422L21.2045 9.55852C20.814 9.16799 20.1808 9.16799 19.7903 9.55852L14.2045 15.1443C13.814 15.5349 13.1808 15.5349 12.7903 15.1443L10.7045 13.0586C10.314 12.668 9.68084 12.668 9.29031 13.0586L9.05461 13.2943C8.66409 13.6848 8.66409 14.3179 9.05461 14.7085L12.6725 18.3263Z" fill="white"/>
</svg>
