<svg width="58" height="57" viewBox="0 0 58 57" fill="none" xmlns="http://www.w3.org/2000/svg">
<g filter="url(#filter0_i_29_7)">
<mask id="path-1-inside-1_29_7" fill="white">
<path d="M57.3335 28.3334C57.3335 43.9815 44.6482 56.6667 29.0002 56.6667H28.3335C12.6854 56.6667 0.000160217 43.9815 0.000160217 28.3334V28.3334C0.000160217 12.6854 12.6854 8.01086e-05 28.3335 8.01086e-05H29.0002C44.6482 8.01086e-05 57.3335 12.6854 57.3335 28.3334V28.3334Z"/>
</mask>
<path d="M57.3335 28.3334C57.3335 43.9815 44.6482 56.6667 29.0002 56.6667H28.3335C12.6854 56.6667 0.000160217 43.9815 0.000160217 28.3334V28.3334C0.000160217 12.6854 12.6854 8.01086e-05 28.3335 8.01086e-05H29.0002C44.6482 8.01086e-05 57.3335 12.6854 57.3335 28.3334V28.3334Z" fill="url(#paint0_linear_29_7)"/>
<path d="M58.0002 28.6667C58.0002 44.4989 45.1657 57.3334 29.3335 57.3334H28.0002C12.168 57.3334 -0.666507 44.4989 -0.666507 28.6667L0.666827 28.3334C0.666827 43.6133 13.0536 56.0001 28.3335 56.0001H29.0002C44.28 56.0001 56.6668 43.6133 56.6668 28.3334L58.0002 28.6667ZM0.000160217 8.01086e-05H57.3335H0.000160217ZM29.3335 8.01086e-05C45.1657 8.01086e-05 58.0002 12.8346 58.0002 28.6667V28.6667C58.0002 44.4989 45.1657 57.3334 29.3335 57.3334L29.0002 56.0001C44.28 56.0001 56.6668 43.6133 56.6668 28.3334V28.3334C56.6668 12.6853 44.28 8.01086e-05 29.0002 8.01086e-05H29.3335ZM28.0002 57.3334C12.168 57.3334 -0.666507 44.4989 -0.666507 28.6667V28.6667C-0.666507 12.8346 12.168 8.01086e-05 28.0002 8.01086e-05H28.3335C13.0536 8.01086e-05 0.666827 12.6853 0.666827 28.3334V28.3334C0.666827 43.6133 13.0536 56.0001 28.3335 56.0001L28.0002 57.3334Z" fill="white" fill-opacity="0.06" mask="url(#path-1-inside-1_29_7)"/>
<path d="M30.917 32.25L26.417 28L30.917 23.75" stroke="white" stroke-width="1.5" stroke-linecap="round" stroke-linejoin="round"/>
</g>
<defs>
<filter id="filter0_i_29_7" x="0" y="0" width="57.5002" height="57.1667" filterUnits="userSpaceOnUse" color-interpolation-filters="sRGB">
<feFlood flood-opacity="0" result="BackgroundImageFix"/>
<feBlend mode="normal" in="SourceGraphic" in2="BackgroundImageFix" result="shape"/>
<feColorMatrix in="SourceAlpha" type="matrix" values="0 0 0 0 0 0 0 0 0 0 0 0 0 0 0 0 0 0 127 0" result="hardAlpha"/>
<feMorphology radius="0.5" operator="erode" in="SourceAlpha" result="effect1_innerShadow_29_7"/>
<feOffset dx="0.166667" dy="1.16667"/>
<feComposite in2="hardAlpha" operator="arithmetic" k2="-1" k3="1"/>
<feColorMatrix type="matrix" values="0 0 0 0 1 0 0 0 0 1 0 0 0 0 1 0 0 0 0.1 0"/>
<feBlend mode="normal" in2="shape" result="effect1_innerShadow_29_7"/>
</filter>
<linearGradient id="paint0_linear_29_7" x1="56.3004" y1="57.6188" x2="1.73115" y2="-1.59513" gradientUnits="userSpaceOnUse">
<stop offset="0.0487" stop-color="#111214"/>
<stop offset="0.7588" stop-color="#0C0D0F"/>
</linearGradient>
</defs>
</svg>
