<svg width="49" height="48" viewBox="0 0 49 48" fill="none" xmlns="http://www.w3.org/2000/svg">
<path d="M38.6641 22H10.6641C8.45492 22 6.66406 23.7909 6.66406 26V40C6.66406 42.2091 8.45492 44 10.6641 44H38.6641C40.8732 44 42.6641 42.2091 42.6641 40V26C42.6641 23.7909 40.8732 22 38.6641 22Z" stroke="#00BF8F" stroke-width="4" stroke-linecap="round" stroke-linejoin="round"/>
<path d="M14.6641 22V14C14.6641 11.3478 15.7177 8.8043 17.593 6.92893C19.4684 5.05357 22.0119 4 24.6641 4C27.3163 4 29.8598 5.05357 31.7352 6.92893C33.6105 8.8043 34.6641 11.3478 34.6641 14V22" stroke="#00BF8F" stroke-width="4" stroke-linecap="round" stroke-linejoin="round"/>
</svg>
