<svg width="196" height="72" viewBox="0 0 196 72" fill="none" xmlns="http://www.w3.org/2000/svg">
<path d="M83.0523 53.9987H99.8625V49.7291H89.062L99.7694 36.277C100.234 35.7481 100.509 35.1043 100.557 34.4314C100.557 33.3887 99.6551 32.7646 98.1484 32.7646H81.5457V34.713C81.5468 35.2718 81.7942 35.8075 82.2336 36.2026C82.6731 36.5978 83.2688 36.8202 83.8903 36.8212H92.215L81.4441 50.4483C80.9458 50.9745 80.649 51.631 80.5977 52.3206C80.5977 53.3861 81.4864 53.9987 83.0354 53.9987" fill="white"/>
<path d="M124.143 43.0311C124.143 36.2879 122.45 32.376 113.745 32.376C105.894 32.376 103.109 35.23 103.109 43.286C103.109 50.8397 106.237 54.2075 113.267 54.2075C116.74 54.2055 120.206 53.933 123.627 53.3932L123.403 51.5552C123.335 51.0138 123.034 50.518 122.564 50.1749C122.093 49.8317 121.492 49.6686 120.889 49.721C118.826 49.9179 116.754 50.0207 114.68 50.0292C111.045 50.0292 109.267 48.7011 109.085 45.8433L109.051 45.3257H124.114C124.147 44.6027 124.164 43.5296 124.164 43.0159M118.112 41.5241L118.053 41.958H108.869V41.4671C108.869 38.731 109.246 36.3488 113.745 36.3488C116.741 36.3488 118.138 37.6997 118.138 40.5956C118.138 40.7745 118.138 41.2692 118.091 41.5241" fill="white"/>
<path d="M169.599 34.9189C168.408 33.98 167.008 33.2799 165.492 32.8653C163.976 32.4506 162.38 32.3308 160.809 32.5139C155.307 33.1494 151.168 37.5522 151.168 42.758V54.1742H153.284C154.189 54.1732 155.057 53.8492 155.696 53.2734C156.336 52.6976 156.695 51.917 156.695 51.1032V42.4079C156.696 41.6601 156.883 40.922 157.242 40.2474C157.601 39.5729 158.123 38.9789 158.77 38.5088C159.417 38.0388 160.173 37.7046 160.981 37.5305C161.79 37.3564 162.632 37.347 163.445 37.5028C164.712 37.7642 165.84 38.4088 166.641 39.3287C167.443 40.2486 167.868 41.388 167.847 42.5563V54.1628H173.378V42.4079C173.376 40.9887 173.038 39.5862 172.387 38.2936C171.735 37.001 170.785 35.848 169.599 34.9113" fill="white"/>
<path d="M190.282 52.9678C189.613 53.1961 188.991 53.5082 188.335 53.7517C186.321 54.49 184.061 54.2693 182.055 53.6223C180.884 53.2507 179.803 52.6825 178.868 51.948C177.948 51.2165 177.213 50.3159 176.714 49.307C176.178 48.2078 175.911 47.0177 175.931 45.8175V33.5146H178.47C179.301 33.5146 180.097 33.8113 180.685 34.3394C181.272 34.8675 181.602 35.5838 181.602 36.3306V45.8327C181.587 46.4061 181.704 46.976 181.945 47.5071C182.157 47.9605 182.474 48.368 182.876 48.702C183.27 49.0234 183.736 49.2659 184.243 49.4136C184.789 49.5758 185.361 49.6555 185.936 49.6495C186.51 49.6526 187.078 49.5408 187.599 49.3223C188.11 49.1116 188.574 48.8174 188.966 48.4546C189.352 48.1016 189.664 47.6891 189.888 47.2369C190.118 46.7968 190.242 46.3185 190.252 45.8327V33.5146H196V54.4443C195.994 55.6796 195.68 56.898 195.081 58.01C194.485 59.1164 193.649 60.1047 192.622 60.9173C191.555 61.7655 190.327 62.4332 188.995 62.8885C187.581 63.375 186.079 63.6202 184.564 63.6115L178.038 63.5773V61.6365C178.039 60.8166 178.397 60.0297 179.036 59.4443C179.674 58.8589 180.542 58.5216 181.454 58.5047C182.965 58.478 184.416 58.4362 184.531 58.4324C184.873 58.4095 185.254 58.3715 185.661 58.3106C186.922 58.1065 188.068 57.5181 188.904 56.6443C189.74 55.7704 190.216 54.6643 190.252 53.512L190.282 52.9678Z" fill="white"/>
<path d="M147.885 24.0811H142.35V32.803L141.216 32.6927C139.935 32.4816 138.636 32.3721 137.335 32.3654C130.771 32.3654 126.699 34.192 126.699 43.2755C126.699 45.7566 126.847 48.5345 128.299 50.7264C129.522 52.5758 131.625 53.5158 133.915 53.9039C136.375 54.269 138.878 54.342 141.359 54.1208C142.471 54.0472 143.577 53.9202 144.673 53.7403C144.999 53.6832 147.885 53.2037 147.885 52.9183V24.0811ZM142.35 49.5772C140.95 49.9605 139.491 50.1391 138.029 50.1061C132.722 50.1061 132.722 46.1599 132.722 43.2564C132.722 40.0789 132.722 36.479 138.609 36.479C139.574 36.4864 140.534 36.6053 141.465 36.8329L142.35 37.2135V49.5772Z" fill="white"/>
<path d="M148.416 64.4038C148.234 64.4038 148.078 64.3386 147.947 64.2082C147.817 64.0778 147.752 63.9217 147.752 63.7396C147.752 63.5576 147.817 63.4014 147.947 63.271C148.078 63.1407 148.234 63.0755 148.416 63.0755C148.598 63.0755 148.754 63.1407 148.885 63.271C149.015 63.4014 149.08 63.5576 149.08 63.7396C149.08 63.8602 149.049 63.9708 148.988 64.0717C148.929 64.1725 148.849 64.2537 148.748 64.3152C148.65 64.3742 148.539 64.4038 148.416 64.4038ZM152.945 64.4628C152.414 64.4628 151.956 64.3373 151.572 64.0865C151.189 63.8356 150.894 63.49 150.687 63.0497C150.48 62.6094 150.377 62.1064 150.377 61.5406C150.377 60.965 150.483 60.4571 150.694 60.0168C150.908 59.574 151.206 59.2285 151.587 58.98C151.971 58.7291 152.419 58.6037 152.93 58.6037C153.329 58.6037 153.688 58.6775 154.008 58.8251C154.327 58.9726 154.589 59.1793 154.793 59.4449C154.998 59.7106 155.124 60.0205 155.173 60.3747H154.303C154.236 60.1164 154.089 59.8877 153.86 59.6884C153.634 59.4867 153.329 59.3859 152.945 59.3859C152.606 59.3859 152.308 59.4744 152.052 59.6515C151.799 59.8262 151.601 60.0734 151.458 60.3931C151.318 60.7105 151.248 61.0831 151.248 61.5111C151.248 61.9489 151.317 62.3302 151.454 62.6549C151.595 62.9796 151.791 63.2317 152.045 63.4113C152.301 63.5908 152.601 63.6806 152.945 63.6806C153.171 63.6806 153.377 63.6412 153.561 63.5625C153.746 63.4838 153.902 63.3707 154.03 63.2231C154.158 63.0755 154.249 62.8984 154.303 62.6918H155.173C155.124 63.0263 155.003 63.3276 154.808 63.5957C154.616 63.8614 154.362 64.0729 154.044 64.2303C153.73 64.3853 153.363 64.4628 152.945 64.4628ZM158.749 64.4628C158.237 64.4628 157.788 64.341 157.402 64.0975C157.018 63.854 156.718 63.5133 156.502 63.0755C156.288 62.6377 156.181 62.126 156.181 61.5406C156.181 60.9503 156.288 60.435 156.502 59.9947C156.718 59.5544 157.018 59.2125 157.402 58.969C157.788 58.7254 158.237 58.6037 158.749 58.6037C159.26 58.6037 159.708 58.7254 160.092 58.969C160.478 59.2125 160.778 59.5544 160.992 59.9947C161.208 60.435 161.317 60.9503 161.317 61.5406C161.317 62.126 161.208 62.6377 160.992 63.0755C160.778 63.5133 160.478 63.854 160.092 64.0975C159.708 64.341 159.26 64.4628 158.749 64.4628ZM158.749 63.6806C159.137 63.6806 159.457 63.581 159.708 63.3817C159.959 63.1825 160.145 62.9205 160.265 62.5958C160.386 62.2712 160.446 61.9194 160.446 61.5406C160.446 61.1618 160.386 60.8088 160.265 60.4817C160.145 60.1545 159.959 59.8901 159.708 59.6884C159.457 59.4867 159.137 59.3859 158.749 59.3859C158.36 59.3859 158.04 59.4867 157.789 59.6884C157.539 59.8901 157.353 60.1545 157.232 60.4817C157.112 60.8088 157.051 61.1618 157.051 61.5406C157.051 61.9194 157.112 62.2712 157.232 62.5958C157.353 62.9205 157.539 63.1825 157.789 63.3817C158.04 63.581 158.36 63.6806 158.749 63.6806ZM162.646 64.3447V58.6775H163.487V59.563H163.561C163.679 59.2604 163.87 59.0255 164.133 58.8583C164.396 58.6885 164.712 58.6037 165.081 58.6037C165.455 58.6037 165.766 58.6885 166.015 58.8583C166.265 59.0255 166.461 59.2604 166.601 59.563H166.66C166.805 59.2703 167.023 59.0378 167.313 58.8656C167.604 58.691 167.952 58.6037 168.357 58.6037C168.864 58.6037 169.279 58.7623 169.601 59.0796C169.923 59.3945 170.084 59.8852 170.084 60.5518V64.3447H169.213V60.5518C169.213 60.1336 169.099 59.8348 168.87 59.6552C168.642 59.4757 168.372 59.3859 168.062 59.3859C167.664 59.3859 167.355 59.5064 167.136 59.7475C166.917 59.9861 166.808 60.2886 166.808 60.6551V64.3447H165.922V60.4632C165.922 60.141 165.818 59.8815 165.609 59.6847C165.4 59.4855 165.13 59.3859 164.801 59.3859C164.574 59.3859 164.363 59.4461 164.166 59.5667C163.972 59.6872 163.814 59.8545 163.694 60.0685C163.576 60.28 163.517 60.5247 163.517 60.8027V64.3447H162.646Z" fill="#2AE4FF"/>
<path d="M48.7348 11.3819C43.5038 0.0532206 26.7021 -4.38768 16.5703 8.6496C16.5703 8.6496 30.583 16.1234 48.7348 11.3819Z" fill="url(#paint0_linear_11_5292)"/>
<path d="M35.4275 20.7514C21.8422 20.8123 11.0417 16.5236 7.72793 14.2822H7.65599C2.47582 16.067 0.397818 19.3662 0.397818 24.0431C0.397818 27.1787 2.01874 30.0175 4.62998 32.0877C1.78174 34.1806 0 37.1374 0 40.4177C0.0141067 42.0021 0.426438 43.5632 1.20616 44.9841L1.51088 44.7292C10.6015 37.1865 20.2458 30.2018 30.3785 23.8223C32.2787 22.6427 33.9716 21.6152 35.4275 20.7514Z" fill="url(#paint1_linear_11_5292)"/>
<path d="M56.6558 32.5141C58.3694 31.5736 59.7731 30.2392 60.7223 28.6486C61.6715 27.0579 62.1319 25.2684 62.056 23.4645C61.9801 21.6606 61.3707 19.9076 60.2906 18.3859C59.2104 16.8643 57.6986 15.6291 55.9109 14.8076C45.4194 20.8392 35.5119 27.746 19.9375 39.3562C45.2585 39.2306 52.7495 55.6471 52.7495 55.6471C61.7809 53.4438 67.5705 37.9025 56.6558 32.5141Z" fill="url(#paint2_linear_11_5292)"/>
<path d="M3.19141 47.4564C12.845 55.4478 24.3903 50.8585 24.3903 50.8585C25.004 58.1344 20.8861 68.0893 16.3492 71.7881H38.2845C42.2416 50.6149 30.3873 42.8291 3.19141 47.4564Z" fill="url(#paint3_linear_11_5292)"/>
<defs>
<linearGradient id="paint0_linear_11_5292" x1="33.6511" y1="9.62097" x2="84.8034" y2="60.758" gradientUnits="userSpaceOnUse">
<stop offset="0.1" stop-color="#ED306F"/>
<stop offset="0.18" stop-color="#ED306F"/>
<stop offset="0.28" stop-color="#B72487"/>
<stop offset="0.36" stop-color="#861A9C"/>
<stop offset="0.39" stop-color="#841A9B"/>
<stop offset="0.4" stop-color="#7D1A97"/>
<stop offset="0.41" stop-color="#721B91"/>
<stop offset="0.42" stop-color="#4B1C7D"/>
<stop offset="0.43" stop-color="#001F55"/>
<stop offset="0.46" stop-color="#013367"/>
<stop offset="0.56" stop-color="#046E9D"/>
<stop offset="0.6" stop-color="#0585B2"/>
<stop offset="0.64" stop-color="#0D99C3"/>
<stop offset="0.7" stop-color="#1ABADD"/>
<stop offset="0.77" stop-color="#23D1F0"/>
<stop offset="0.83" stop-color="#28DFFB"/>
<stop offset="0.88" stop-color="#2AE4FF"/>
</linearGradient>
<linearGradient id="paint1_linear_11_5292" x1="-1.65054" y1="12.4594" x2="42.68" y2="68.4845" gradientUnits="userSpaceOnUse">
<stop offset="0.1" stop-color="#ED306F"/>
<stop offset="0.18" stop-color="#ED306F"/>
<stop offset="0.28" stop-color="#B72487"/>
<stop offset="0.36" stop-color="#861A9C"/>
<stop offset="0.39" stop-color="#841A9B"/>
<stop offset="0.4" stop-color="#7D1A97"/>
<stop offset="0.41" stop-color="#721B91"/>
<stop offset="0.42" stop-color="#4B1C7D"/>
<stop offset="0.43" stop-color="#001F55"/>
<stop offset="0.46" stop-color="#013367"/>
<stop offset="0.56" stop-color="#046E9D"/>
<stop offset="0.6" stop-color="#0585B2"/>
<stop offset="0.64" stop-color="#0D99C3"/>
<stop offset="0.7" stop-color="#1ABADD"/>
<stop offset="0.77" stop-color="#23D1F0"/>
<stop offset="0.83" stop-color="#28DFFB"/>
<stop offset="0.88" stop-color="#2AE4FF"/>
</linearGradient>
<linearGradient id="paint2_linear_11_5292" x1="12.8782" y1="0.963597" x2="57.2088" y2="56.9886" gradientUnits="userSpaceOnUse">
<stop offset="0.1" stop-color="#ED306F"/>
<stop offset="0.18" stop-color="#ED306F"/>
<stop offset="0.28" stop-color="#B72487"/>
<stop offset="0.36" stop-color="#861A9C"/>
<stop offset="0.39" stop-color="#841A9B"/>
<stop offset="0.4" stop-color="#7D1A97"/>
<stop offset="0.41" stop-color="#721B91"/>
<stop offset="0.42" stop-color="#4B1C7D"/>
<stop offset="0.43" stop-color="#001F55"/>
<stop offset="0.46" stop-color="#013367"/>
<stop offset="0.56" stop-color="#046E9D"/>
<stop offset="0.6" stop-color="#0585B2"/>
<stop offset="0.64" stop-color="#0D99C3"/>
<stop offset="0.7" stop-color="#1ABADD"/>
<stop offset="0.77" stop-color="#23D1F0"/>
<stop offset="0.83" stop-color="#28DFFB"/>
<stop offset="0.88" stop-color="#2AE4FF"/>
</linearGradient>
<linearGradient id="paint3_linear_11_5292" x1="-13.5637" y1="21.888" x2="30.7668" y2="77.913" gradientUnits="userSpaceOnUse">
<stop offset="0.1" stop-color="#ED306F"/>
<stop offset="0.18" stop-color="#ED306F"/>
<stop offset="0.28" stop-color="#B72487"/>
<stop offset="0.36" stop-color="#861A9C"/>
<stop offset="0.39" stop-color="#841A9B"/>
<stop offset="0.4" stop-color="#7D1A97"/>
<stop offset="0.41" stop-color="#721B91"/>
<stop offset="0.42" stop-color="#4B1C7D"/>
<stop offset="0.43" stop-color="#001F55"/>
<stop offset="0.46" stop-color="#013367"/>
<stop offset="0.56" stop-color="#046E9D"/>
<stop offset="0.6" stop-color="#0585B2"/>
<stop offset="0.64" stop-color="#0D99C3"/>
<stop offset="0.7" stop-color="#1ABADD"/>
<stop offset="0.77" stop-color="#23D1F0"/>
<stop offset="0.83" stop-color="#28DFFB"/>
<stop offset="0.88" stop-color="#2AE4FF"/>
</linearGradient>
</defs>
</svg>
