<svg width="58" height="57" viewBox="0 0 58 57" fill="none" xmlns="http://www.w3.org/2000/svg">
<g filter="url(#filter0_i_29_4)">
<mask id="path-1-inside-1_29_4" fill="white">
<path d="M0 28.3333C0 12.6853 12.6853 0 28.3333 0H29C44.6481 0 57.3333 12.6853 57.3333 28.3333V28.3333C57.3333 43.9814 44.6481 56.6667 29 56.6667H28.3333C12.6852 56.6667 0 43.9814 0 28.3333V28.3333Z"/>
</mask>
<path d="M0 28.3333C0 12.6853 12.6853 0 28.3333 0H29C44.6481 0 57.3333 12.6853 57.3333 28.3333V28.3333C57.3333 43.9814 44.6481 56.6667 29 56.6667H28.3333C12.6852 56.6667 0 43.9814 0 28.3333V28.3333Z" fill="url(#paint0_linear_29_4)"/>
<path d="M-0.666667 28C-0.666667 12.1678 12.1678 -0.666667 28 -0.666667H29.3333C45.1655 -0.666667 58 12.1678 58 28L56.6667 28.3333C56.6667 13.0535 44.2799 0.666667 29 0.666667H28.3333C13.0535 0.666667 0.666667 13.0535 0.666667 28.3333L-0.666667 28ZM57.3333 56.6667H0H57.3333ZM28 56.6667C12.1678 56.6667 -0.666667 43.8322 -0.666667 28V28C-0.666667 12.1678 12.1678 -0.666667 28 -0.666667L28.3333 0.666667C13.0535 0.666667 0.666667 13.0535 0.666667 28.3333V28.3333C0.666667 43.9814 13.0535 56.6667 28.3333 56.6667H28ZM29.3333 -0.666667C45.1655 -0.666667 58 12.1678 58 28V28C58 43.8322 45.1655 56.6667 29.3333 56.6667H29C44.2799 56.6667 56.6667 43.9814 56.6667 28.3333V28.3333C56.6667 13.0535 44.2799 0.666667 29 0.666667L29.3333 -0.666667Z" fill="white" fill-opacity="0.06" mask="url(#path-1-inside-1_29_4)"/>
<path d="M26.4165 24.4167L30.9165 28.6667L26.4165 32.9167" stroke="white" stroke-width="1.5" stroke-linecap="round" stroke-linejoin="round"/>
</g>
<defs>
<filter id="filter0_i_29_4" x="0" y="0" width="57.5002" height="57.1667" filterUnits="userSpaceOnUse" color-interpolation-filters="sRGB">
<feFlood flood-opacity="0" result="BackgroundImageFix"/>
<feBlend mode="normal" in="SourceGraphic" in2="BackgroundImageFix" result="shape"/>
<feColorMatrix in="SourceAlpha" type="matrix" values="0 0 0 0 0 0 0 0 0 0 0 0 0 0 0 0 0 0 127 0" result="hardAlpha"/>
<feMorphology radius="0.5" operator="erode" in="SourceAlpha" result="effect1_innerShadow_29_4"/>
<feOffset dx="0.166667" dy="1.16667"/>
<feComposite in2="hardAlpha" operator="arithmetic" k2="-1" k3="1"/>
<feColorMatrix type="matrix" values="0 0 0 0 1 0 0 0 0 1 0 0 0 0 1 0 0 0 0.1 0"/>
<feBlend mode="normal" in2="shape" result="effect1_innerShadow_29_4"/>
</filter>
<linearGradient id="paint0_linear_29_4" x1="1.03306" y1="-0.952024" x2="55.6024" y2="58.2619" gradientUnits="userSpaceOnUse">
<stop offset="0.0487" stop-color="#111214"/>
<stop offset="0.7588" stop-color="#0C0D0F"/>
</linearGradient>
</defs>
</svg>
